<svg xmlns="http://www.w3.org/2000/svg" width="933.333" height="933.333" version="1.0" viewBox="0 0 700 700"><path d="M494 9.7c-2.2 1.5-22 18.2-29.1 24.5-1.4 1.3-5.9 5.2-9.9 8.8-16 14.2-61.3 60.4-74.1 75.5-1.9 2.2-3.9 4.4-4.5 5-.6.5-3.7 4.1-7 8-3.2 3.8-6.1 7.2-6.4 7.5s-2.4 2.7-4.5 5.5c-2.2 2.7-4.2 5.2-4.5 5.5-1.1 1-16.7 20.7-22.9 28.8l-6.3 8.3-4.1-3.7c-2.3-2-6.4-5.8-9.2-8.4-9.1-8.4-37.4-31.8-51.3-42.2-20.6-15.5-50.3-35-50.2-33 0 .4 3.3 3.1 7.3 6s8.6 6.5 10.3 8c1.8 1.5 5.6 4.7 8.5 7.2 5.7 4.7 28.2 27 33.4 33 1.7 1.9 5.2 6.2 7.8 9.5 2.7 3.3 5.4 6.8 6.2 7.7 3 3.7 17.4 25.7 20.9 31.9l3.7 6.7-7 10c-6.1 8.9-13.6 20.3-23.6 35.7-18.5 28.6-50.9 88.6-62.4 115.5-1.3 3-3.2 7.3-4.2 9.5-11.1 24.5-27.5 69.7-36.4 100.5l-4.5 15.5 2.3 1.8c11 8.8 32 20.4 50.8 28 23.7 9.6 61.4 18.9 85.4 21.3 3.9.3 7.9.8 9 1 8.6 1.7 45.8 2.2 62 .9 5.5-.4 10.6-.8 11.3-.8.6 0 1.2-.3 1.2-.6s2.6-.7 5.8-.7c12-.3 41.6-6.6 61.5-13 20.8-6.7 41-15.8 58-26.1 9.6-5.8 21.6-14.3 21.7-15.5 0-1.6-25.2-53.4-33.9-69.4-15.8-29.3-36.6-63.2-57.8-93.9-4.6-6.8-5.9-8.6-14.7-20.5-4.6-6.1-20.1-26.4-22.7-29.5-.9-1.1-5.2-6.3-9.5-11.5s-12.5-14.8-18.2-21.3c-11.3-12.8-10.6-11.2-8.7-20.2 3.5-16 15-52.9 21.7-69.5 5.6-13.9 7.2-17.4 15.4-34 20.1-40.3 41.3-70.1 72-100.8C490.5 14.4 496.8 8 496.7 8s-1.4.8-2.7 1.7"/></svg>